<svg width="162" height="162" viewBox="0 0 162 162" fill="none" xmlns="http://www.w3.org/2000/svg">
<path d="M137.939 23.6407C106.418 -7.88024 55.1617 -7.88024 23.6407 23.6407C-7.88024 55.1617 -7.88024 106.418 23.6407 137.939C55.1617 169.46 106.418 169.46 137.939 137.939C169.46 106.418 169.46 55.1617 137.939 23.6407Z" fill="#1E232D"/>
<path d="M80.7952 10.7429C119.543 10.7429 150.837 42.037 150.837 80.7846C150.837 119.532 119.543 150.826 80.7952 150.826C42.0476 150.826 10.7427 119.543 10.7427 80.7954C10.7427 42.0478 42.0476 10.7429 80.7952 10.7429Z" fill="#D3E5F4"/>
<path d="M95.3566 1.32315C70.1226 -3.2678 43.117 4.17494 23.6405 23.6406C4.17488 43.117 -3.26787 70.1227 1.32309 95.3567C-2.18764 70.4251 6.22731 43.992 25.1312 25.0881C44.046 6.17336 70.5223 -2.09036 95.3566 1.32315Z" fill="#232A35"/>
<path d="M93.9201 12.0607C71.365 7.7506 47.1679 14.6316 30.0896 32.5094C13.0112 50.3871 7.25364 74.8758 12.5899 97.204C9.68414 75.3295 16.3707 52.3747 32.8442 35.1343C49.3068 17.8939 71.9267 10.1487 93.9201 12.0499V12.0607Z" fill="#D3E5F4"/>
<path d="M150.351 74.0224C152.198 93.2936 146.084 113.224 131.814 128.52C117.545 143.816 98.0789 151.291 78.7321 150.783C98.6298 151.831 117.998 145.544 132.765 129.719C147.532 113.893 152.889 93.8769 150.351 74.0224Z" fill="#232A35"/>
<path d="M80.7521 16.0791C79.2614 16.1007 78.0732 17.3214 78.0948 18.8121V24.6453C78.0948 25.3582 78.3756 26.0496 78.8833 26.5465C79.391 27.0542 80.0716 27.335 80.7845 27.335C81.4975 27.335 82.1888 27.0542 82.6857 26.5465C83.1934 26.0388 83.4743 25.3582 83.4743 24.6453V18.8121C83.4743 18.0883 83.2042 17.3862 82.6857 16.8677C82.1672 16.3492 81.4651 16.0683 80.7413 16.0791H80.7521Z" fill="#1E232D"/>
<path d="M80.7521 134.191C79.2614 134.213 78.0732 135.433 78.0948 136.924V142.768C78.0948 143.481 78.3756 144.172 78.8833 144.669C79.391 145.177 80.0716 145.458 80.7845 145.458C81.4975 145.458 82.1888 145.177 82.6857 144.669C83.1934 144.161 83.4743 143.481 83.4743 142.768V136.924C83.4743 136.2 83.2042 135.498 82.6857 134.979C82.1672 134.461 81.4651 134.18 80.7413 134.191H80.7521Z" fill="#1E232D"/>
<path d="M18.812 78.0948C18.099 78.0948 17.4077 78.3757 16.9108 78.8834C16.4031 79.3911 16.1222 80.0717 16.1222 80.7846C16.1222 81.4976 16.4031 82.1889 16.9108 82.6858C17.4185 83.1935 18.099 83.4744 18.812 83.4744H24.656C26.1467 83.4744 27.3457 82.2645 27.3457 80.7846C27.3457 79.3047 26.1359 78.0948 24.656 78.0948H18.812Z" fill="#1E232D"/>
<path d="M136.924 78.0948C136.211 78.0948 135.519 78.3757 135.023 78.8834C134.515 79.3911 134.234 80.0717 134.234 80.7846C134.234 81.4976 134.515 82.1889 135.023 82.6858C135.53 83.1935 136.211 83.4744 136.924 83.4744H142.768C144.258 83.4744 145.458 82.2645 145.458 80.7846C145.458 79.3047 144.248 78.0948 142.768 78.0948H136.924Z" fill="#1E232D"/>
<path d="M49.7388 25.7579C49.2635 25.7795 48.8314 26.0496 48.6045 26.4601C48.3777 26.8814 48.3885 27.3891 48.6369 27.7887L51.5536 32.8442C51.7264 33.1575 52.0289 33.3843 52.3745 33.4815C52.7202 33.5787 53.0875 33.5247 53.4007 33.3519C53.714 33.1683 53.9408 32.8766 54.0273 32.5309C54.1137 32.1853 54.0705 31.818 53.8868 31.5047L50.9702 26.4493C50.7218 26.0064 50.2465 25.7363 49.7388 25.7579Z" fill="#1E232D"/>
<path d="M108.795 128.044C108.319 128.066 107.887 128.325 107.66 128.747C107.434 129.168 107.444 129.665 107.682 130.075L110.599 135.131C110.771 135.455 111.063 135.692 111.42 135.79C111.776 135.887 112.143 135.844 112.467 135.66C112.781 135.476 113.008 135.174 113.105 134.817C113.191 134.461 113.137 134.083 112.943 133.78L110.026 128.725C109.778 128.282 109.302 128.012 108.795 128.034V128.044Z" fill="#1E232D"/>
<path d="M27.0218 48.4427C26.4276 48.4751 25.9199 48.9072 25.7903 49.4905C25.6607 50.0738 25.9199 50.6788 26.4492 50.9704L31.5047 53.887C31.818 54.0707 32.1852 54.1247 32.5309 54.0274C32.8766 53.9302 33.179 53.7034 33.3519 53.4009C33.5355 53.0877 33.5787 52.7204 33.4815 52.3747C33.3843 52.029 33.1574 51.7374 32.8442 51.5537L27.7887 48.6371C27.5511 48.4967 27.2918 48.4319 27.0218 48.4427Z" fill="#1E232D"/>
<path d="M129.438 107.499C128.811 107.477 128.25 107.877 128.088 108.482C127.915 109.086 128.185 109.724 128.736 110.026L133.791 112.943C134.104 113.137 134.472 113.191 134.828 113.105C135.185 113.018 135.487 112.792 135.671 112.468C135.854 112.154 135.898 111.776 135.8 111.42C135.703 111.063 135.465 110.772 135.141 110.599L130.086 107.682C129.891 107.563 129.675 107.499 129.449 107.488L129.438 107.499Z" fill="#1E232D"/>
<path d="M32.2392 107.499C31.9799 107.499 31.7315 107.553 31.5046 107.693L26.4492 110.61C26.1251 110.782 25.8874 111.074 25.7902 111.431C25.693 111.787 25.7362 112.154 25.9199 112.478C26.1035 112.792 26.406 113.019 26.7624 113.116C27.1189 113.202 27.497 113.148 27.7994 112.954L32.8549 110.037C33.3842 109.745 33.6543 109.13 33.5138 108.536C33.3734 107.941 32.8549 107.52 32.2392 107.509V107.499Z" fill="#1E232D"/>
<path d="M134.515 48.4427C134.256 48.4427 134.007 48.4967 133.78 48.6371L128.725 51.5537C128.412 51.7266 128.185 52.029 128.088 52.3747C127.99 52.7204 128.034 53.0877 128.217 53.4009C128.401 53.7142 128.693 53.941 129.038 54.0274C129.384 54.1139 129.762 54.0707 130.064 53.887L135.12 50.9704C135.649 50.6788 135.908 50.063 135.768 49.4797C135.628 48.8964 135.109 48.4751 134.504 48.4535L134.515 48.4427Z" fill="#1E232D"/>
<path d="M52.742 128.034C52.2451 128.034 51.7914 128.293 51.5537 128.725L48.6371 133.78C48.4427 134.094 48.3886 134.461 48.4751 134.817C48.5615 135.174 48.7883 135.476 49.1124 135.66C49.4257 135.844 49.8037 135.887 50.1602 135.79C50.5167 135.692 50.8084 135.455 50.9812 135.131L53.8978 130.075C54.1462 129.665 54.1462 129.146 53.9194 128.725C53.6817 128.304 53.2389 128.044 52.7528 128.034H52.742Z" fill="#1E232D"/>
<path d="M111.798 25.758C111.312 25.758 110.847 26.0172 110.609 26.4493L107.693 31.5048C107.509 31.8181 107.455 32.1853 107.552 32.531C107.639 32.8767 107.866 33.1791 108.179 33.352C108.492 33.5356 108.859 33.5788 109.205 33.4816C109.551 33.3844 109.842 33.1575 110.026 32.8443L112.943 27.7888C113.191 27.3783 113.191 26.8598 112.964 26.4385C112.727 26.0172 112.284 25.758 111.798 25.7472V25.758Z" fill="#1E232D"/>
<path d="M120.785 55.0537C120.267 55.0429 119.759 55.1725 119.316 55.4317L79.4342 78.4513C78.1488 79.1967 77.7059 80.8494 78.4512 82.1349C79.1966 83.4204 80.8385 83.8633 82.1348 83.1179L122.006 60.0983C123.065 59.5042 123.594 58.2835 123.302 57.1061C123.01 55.9286 121.984 55.0861 120.774 55.0537H120.785Z" fill="#1E232D"/>
<path d="M80.7953 75.4051C77.8463 75.4051 75.405 77.8464 75.405 80.7954C75.405 83.7444 77.8463 86.1857 80.7953 86.1857C83.7444 86.1857 86.1857 83.7444 86.1857 80.7954C86.1857 77.8464 83.7444 75.4051 80.7953 75.4051Z" fill="#1E232D"/>
<path d="M51.9856 61.4053C50.7434 61.3513 49.6199 62.1723 49.2851 63.3714C48.9502 64.5704 49.4795 65.8451 50.5705 66.45L79.4449 83.1179C80.0607 83.4743 80.7952 83.5716 81.4866 83.3879C82.1779 83.2043 82.7612 82.7506 83.1285 82.1349C83.485 81.5191 83.5822 80.7846 83.3986 80.0932C83.2149 79.4019 82.7612 78.8186 82.1455 78.4621L53.2711 61.7942C52.8822 61.5674 52.4393 61.4378 51.9856 61.4161V61.4053Z" fill="#1E232D"/>
<path d="M80.8168 79.4235C80.3307 79.4235 79.877 79.6828 79.6286 80.1149L56.609 119.997C56.4038 120.31 56.3389 120.688 56.4254 121.045C56.5118 121.401 56.7386 121.714 57.0627 121.898C57.3868 122.082 57.7648 122.125 58.1213 122.028C58.4778 121.92 58.7694 121.682 58.9423 121.347L81.9619 81.476C82.2103 81.0655 82.2103 80.547 81.9835 80.1257C81.7458 79.7044 81.3029 79.4451 80.8168 79.4343V79.4235Z" fill="#05ACEB"/>
<path d="M80.7953 78.0948C79.3262 78.0948 78.1056 79.3155 78.1056 80.7846C78.1056 82.2537 79.3262 83.4744 80.7953 83.4744C82.2645 83.4744 83.4851 82.2537 83.4851 80.7846C83.4851 79.3155 82.2645 78.0948 80.7953 78.0948Z" fill="#05ACEB"/>
</svg>
