<svg width="167" height="176" viewBox="0 0 167 176" fill="none" xmlns="http://www.w3.org/2000/svg">
<path d="M166.117 45.187C166.129 46.4151 165.955 47.6654 165.579 48.9041L150.258 99.2347C150.258 99.2347 148.762 105.271 140.493 106.001C134.297 105.429 132.724 111.818 131.387 116.126C130.392 119.338 120.93 152.259 116.177 168.811C114.69 173.992 109.274 176.976 104.098 175.467L47.6276 158.988C47.6223 158.986 47.6191 158.985 47.6191 158.985L0.244507 145.16L42.38 0L157.206 33.4288C162.578 34.9933 166.071 39.8769 166.118 45.187H166.117Z" fill="#1E232D"/>
<path opacity="0.25" d="M149.735 44.0411L52.1873 7.95709L3.86449 138.591L101.412 174.675L149.735 44.0411Z" fill="#1E232D"/>
<path d="M148.919 41.2555L51.3715 5.17151L3.04869 135.805L100.596 171.889L148.919 41.2555Z" fill="#D3E5F4"/>
<path d="M112.28 111.9L33.2173 82.6538L32.0901 85.701L111.153 114.947L112.28 111.9Z" fill="white" fill-opacity="0.85"/>
<path d="M110.281 117.305L31.2178 88.0585L30.0906 91.1056L109.153 120.352L110.281 117.305Z" fill="white" fill-opacity="0.85"/>
<path d="M108.314 122.623L29.2509 93.3772L28.1237 96.4244L107.186 125.671L108.314 122.623Z" fill="white" fill-opacity="0.85"/>
<path d="M106.314 128.029L27.2512 98.7828L26.124 101.83L105.187 131.076L106.314 128.029Z" fill="white" fill-opacity="0.85"/>
<path d="M120.473 42.2251L72.3383 24.4197L70.623 29.0566L118.757 46.862L120.473 42.2251Z" fill="white" fill-opacity="0.85"/>
<path d="M131.967 58.6785L52.9043 29.4323L51.7771 32.4795L130.84 61.7257L131.967 58.6785Z" fill="white" fill-opacity="0.85"/>
<path d="M129.967 64.0843L50.9045 34.8381L49.7774 37.8853L128.84 67.1315L129.967 64.0843Z" fill="white" fill-opacity="0.85"/>
<path d="M128 69.4029L48.9377 40.1567L47.8106 43.2039L126.873 72.4501L128 69.4029Z" fill="white" fill-opacity="0.85"/>
<path d="M126.001 74.8097L46.938 45.5635L45.8108 48.6107L124.874 77.8569L126.001 74.8097Z" fill="white" fill-opacity="0.85"/>
<path d="M102.931 137.173L23.8687 107.927L22.7415 110.974L101.804 140.22L102.931 137.173Z" fill="white" fill-opacity="0.85"/>
<path d="M100.932 142.578L21.8691 113.332L20.742 116.379L99.8047 145.626L100.932 142.578Z" fill="white" fill-opacity="0.85"/>
<path d="M98.9639 147.896L19.9011 118.649L18.7739 121.697L97.8367 150.943L98.9639 147.896Z" fill="white" fill-opacity="0.85"/>
<path d="M96.9642 153.301L17.9015 124.055L16.7743 127.102L95.8371 156.349L96.9642 153.301Z" fill="white" fill-opacity="0.85"/>
<path d="M47.6128 81.0477L40.4526 78.3995C39.6428 78.1002 39.2288 77.2001 39.5281 76.3903L42.1763 69.23C42.4757 68.4202 43.3757 68.0062 44.1856 68.3056L51.3458 70.9538C52.1556 71.2531 52.5696 72.1531 52.2703 72.963L49.6221 80.1232C49.3228 80.933 48.4227 81.347 47.6128 81.0477Z" fill="#1E232D"/>
<path d="M44.8647 77.0271L42.8459 73.7962L43.9732 73.0925L45.3275 75.2588L49.1708 73.1541L49.8098 74.3195L44.8647 77.0271Z" fill="#D3E5F4"/>
<path d="M51.9627 69.2895L44.8025 66.6413C43.9926 66.342 43.5787 65.4419 43.878 64.6321L46.5262 57.4719C46.8255 56.662 47.7256 56.2481 48.5354 56.5474L55.6956 59.1956C56.5055 59.4949 56.9194 60.395 56.6201 61.2048L53.9719 68.365C53.6726 69.1749 52.7725 69.5888 51.9627 69.2895Z" fill="#1E232D"/>
<path d="M49.2148 65.2689L47.1949 62.038L48.3232 61.3343L49.6776 63.5006L53.5209 61.3959L54.1599 62.5613L49.2148 65.2689Z" fill="#D3E5F4"/>
<path d="M118.403 84.553L58.8478 62.5228L58.0089 64.7905L117.564 86.8207L118.403 84.553Z" fill="white" fill-opacity="0.85"/>
<path d="M116.915 88.577L57.3596 66.5468L56.5208 68.8145L116.076 90.8447L116.915 88.577Z" fill="white" fill-opacity="0.85"/>
<path d="M114.053 96.3115L54.4974 74.2812L53.6586 76.5489L113.214 98.5792L114.053 96.3115Z" fill="white" fill-opacity="0.85"/>
<path d="M112.566 100.335L53.0101 78.3051L52.1713 80.5728L111.727 102.603L112.566 100.335Z" fill="white" fill-opacity="0.85"/>
<path opacity="0.25" d="M108.72 164.014L5.64624 150.104L49.1764 11.1042L127.348 25.9808L108.72 164.014Z" fill="#1E232D"/>
<path d="M125.941 23.4487L22.8682 9.53107L4.23006 147.563L107.302 161.481L125.941 23.4487Z" fill="#D3E5F4"/>
<path d="M105.608 100.386L22.0679 89.106L21.6331 92.3258L105.174 103.606L105.608 100.386Z" fill="white" fill-opacity="0.85"/>
<path d="M104.836 106.099L21.2953 94.8188L20.8605 98.0385L104.401 109.319L104.836 106.099Z" fill="white" fill-opacity="0.85"/>
<path d="M104.078 111.718L20.5374 100.438L20.1026 103.657L103.643 114.938L104.078 111.718Z" fill="white" fill-opacity="0.85"/>
<path d="M103.307 117.43L19.7664 106.15L19.3316 109.369L102.872 120.65L103.307 117.43Z" fill="white" fill-opacity="0.85"/>
<path d="M98.3916 30.6048L47.5312 23.7372L46.8697 28.6368L97.7301 35.5043L98.3916 30.6048Z" fill="white" fill-opacity="0.85"/>
<path d="M113.202 44.1525L29.6616 32.8722L29.2269 36.0919L112.767 47.3722L113.202 44.1525Z" fill="white" fill-opacity="0.85"/>
<path d="M112.43 49.8642L28.8892 38.5839L28.4544 41.8037L111.995 53.0839L112.43 49.8642Z" fill="white" fill-opacity="0.85"/>
<path d="M111.671 55.4831L28.1302 44.2028L27.6955 47.4225L111.236 58.7028L111.671 55.4831Z" fill="white" fill-opacity="0.85"/>
<path d="M110.9 61.196L27.36 49.9157L26.9252 53.1354L110.466 64.4157L110.9 61.196Z" fill="white" fill-opacity="0.85"/>
<path d="M102.001 127.09L18.4607 115.81L18.0259 119.03L101.566 130.31L102.001 127.09Z" fill="white" fill-opacity="0.85"/>
<path d="M101.231 132.803L17.6907 121.523L17.2559 124.743L100.796 136.023L101.231 132.803Z" fill="white" fill-opacity="0.85"/>
<path d="M100.472 138.422L16.9318 127.142L16.497 130.362L100.038 141.642L100.472 138.422Z" fill="white" fill-opacity="0.85"/>
<path d="M99.6999 144.134L16.1594 132.854L15.7247 136.073L99.2652 147.354L99.6999 144.134Z" fill="white" fill-opacity="0.85"/>
<path d="M35.7709 84.3951L28.2053 83.374C27.3498 83.2584 26.749 82.4708 26.8647 81.6153L27.8858 74.0496C28.0015 73.1941 28.789 72.5934 29.6445 72.7091L37.2102 73.7302C38.0657 73.8458 38.6664 74.6334 38.5508 75.4889L37.5297 83.0546C37.414 83.9101 36.6264 84.5108 35.7709 84.3951Z" fill="#1E232D"/>
<path d="M32.212 81.073L29.5363 78.36L30.483 77.4271L32.2768 79.2452L35.5682 76.3519L36.446 77.3496L32.212 81.073Z" fill="#D3E5F4"/>
<path d="M37.4478 71.9713L29.8822 70.9502C29.0267 70.8345 28.4259 70.047 28.5416 69.1915L29.5627 61.6258C29.6784 60.7703 30.4659 60.1696 31.3214 60.2853L38.8871 61.3063C39.7426 61.422 40.3433 62.2096 40.2276 63.0651L39.2066 70.6307C39.0909 71.4862 38.3033 72.087 37.4478 71.9713Z" fill="#1E232D"/>
<path d="M33.8889 68.6481L31.212 65.9362L32.1588 65.0022L33.9536 66.8214L37.245 63.927L38.1228 64.9258L33.8889 68.6481Z" fill="#D3E5F4"/>
<path d="M105.613 72.3635L42.6848 63.8664L42.3613 66.2625L105.29 74.7596L105.613 72.3635Z" fill="white" fill-opacity="0.85"/>
<path d="M105.038 76.6159L42.11 68.1188L41.7864 70.515L104.715 79.012L105.038 76.6159Z" fill="white" fill-opacity="0.85"/>
<path d="M103.935 84.7885L41.0071 76.2914L40.6835 78.6876L103.612 87.1846L103.935 84.7885Z" fill="white" fill-opacity="0.85"/>
<path d="M103.36 89.039L40.4319 80.5419L40.1083 82.9381L103.037 91.4351L103.36 89.039Z" fill="white" fill-opacity="0.85"/>
<path opacity="0.25" d="M109.484 158.737H5.47522L22.1583 14.8014L109.484 19.4525V158.737Z" fill="#1E232D"/>
<path d="M107.752 17.1227H3.74426V156.407H107.752V17.1227Z" fill="#D3E5F4"/>
<path d="M97.8968 96.0899H13.5981V99.3389H97.8968V96.0899Z" fill="white" fill-opacity="0.85"/>
<path d="M97.8968 101.853H13.5981V105.102H97.8968V101.853Z" fill="white" fill-opacity="0.85"/>
<path d="M97.8968 107.523H13.5981V110.772H97.8968V107.523Z" fill="white" fill-opacity="0.85"/>
<path d="M97.8968 113.288H13.5981V116.537H97.8968V113.288Z" fill="white" fill-opacity="0.85"/>
<path d="M81.409 27.9001H30.087V32.8442H81.409V27.9001Z" fill="white" fill-opacity="0.85"/>
<path d="M97.8968 39.3442H13.5981V42.5931H97.8968V39.3442Z" fill="white" fill-opacity="0.85"/>
<path d="M97.8968 45.1088H13.5981V48.3577H97.8968V45.1088Z" fill="white" fill-opacity="0.85"/>
<path d="M97.8968 50.7787H13.5981V54.0276H97.8968V50.7787Z" fill="white" fill-opacity="0.85"/>
<path d="M97.8968 56.5421H13.5981V59.791H97.8968V56.5421Z" fill="white" fill-opacity="0.85"/>
<path d="M97.8968 123.037H13.5981V126.286H97.8968V123.037Z" fill="white" fill-opacity="0.85"/>
<path d="M97.8968 128.8H13.5981V132.049H97.8968V128.8Z" fill="white" fill-opacity="0.85"/>
<path d="M97.8968 134.47H13.5981V137.719H97.8968V134.47Z" fill="white" fill-opacity="0.85"/>
<path d="M97.8968 140.235H13.5981V143.484H97.8968V140.235Z" fill="white" fill-opacity="0.85"/>
<path d="M26.5419 89.5898H18.9072C18.0443 89.5898 17.3438 88.8903 17.3438 88.0264V80.3917C17.3438 79.5277 18.0443 78.8282 18.9072 78.8282H26.5419C27.4058 78.8282 28.1053 79.5277 28.1053 80.3917V88.0264C28.1053 88.8903 27.4058 89.5898 26.5419 89.5898Z" fill="#05ACEB"/>
<path d="M22.5703 86.7728L19.5559 84.4431L20.3689 83.3912L22.3909 84.9525L25.2652 81.6452L26.2693 82.5177L22.5703 86.7728Z" fill="#D3E5F4"/>
<path d="M26.5419 77.0526H18.9072C18.0443 77.0526 17.3438 76.3531 17.3438 75.4891V67.8545C17.3438 66.9905 18.0443 66.291 18.9072 66.291H26.5419C27.4058 66.291 28.1053 66.9905 28.1053 67.8545V75.4891C28.1053 76.3531 27.4058 77.0526 26.5419 77.0526Z" fill="#05ACEB"/>
<path d="M22.5703 74.2357L19.5559 71.9059L20.3689 70.854L22.3909 72.4164L25.2652 69.108L26.2693 69.9805L22.5703 74.2357Z" fill="#D3E5F4"/>
<path d="M94.152 68.3172H30.6526V70.7351H94.152V68.3172Z" fill="white" fill-opacity="0.85"/>
<path d="M94.152 72.6084H30.6526V75.0263H94.152V72.6084Z" fill="white" fill-opacity="0.85"/>
<path d="M94.152 80.8544H30.6526V83.2723H94.152V80.8544Z" fill="white" fill-opacity="0.85"/>
<path d="M94.152 85.1447H30.6526V87.5626H94.152V85.1447Z" fill="white" fill-opacity="0.85"/>
</svg>
